<svg xmlns="http://www.w3.org/2000/svg" width="345.6" height="345.6" viewBox="0 0 9144 9144" shape-rendering="geometricPrecision" text-rendering="geometricPrecision" image-rendering="optimizeQuality" fill-rule="evenodd" clip-rule="evenodd"><defs><radialGradient id="id2" gradientUnits="userSpaceOnUse" cx="2855.89" cy="3085.6" r="2267.92" fx="2855.89" fy="3085.6"><stop offset="0" stop-color="#d8da00"/><stop offset=".161" stop-color="#b8d611"/><stop offset="1" stop-color="#98d321"/></radialGradient><style>.fil2{fill:#369090;fill-rule:nonzero}</style><mask id="id0"><linearGradient id="id1" gradientUnits="userSpaceOnUse" x1="4885.67" y1="4369.19" x2="7209.35" y2="1824.23"><stop offset="0" stop-color="#fff"/><stop offset="1" stop-opacity="0" stop-color="#fff"/></linearGradient><path fill="url(#id1)" d="M4244 256h3608v5681H4244z"/></mask></defs><g id="Layer_x0020_1"><circle cx="4572" cy="4572" r="4572" fill="#fefefe"/><path d="M4521 3455l9-52c-176-435-297-859-326-1398-36-693 234-1186 313-1763L2765 3207c-420 698-1192 2116-1583 2716 719 8 1631-489 2062-820 525-404 956-920 1278-1647z" fill="url(#id2)"/><path class="fil2" d="M1636 6423v881h-261v-881z"/><path id="1" class="fil2" d="M1794 7304v-635c0-79 24-143 72-193s110-75 186-75c90 0 160 41 208 124 30-45 62-76 96-95s76-29 126-29c79 0 140 25 182 75s63 122 63 215v612h-262v-573c0-28-2-46-7-55s-14-14-28-14c-26 0-39 22-39 65v578h-262v-573c0-27-2-46-7-55s-14-14-28-14c-26 0-39 23-39 69v573h-262z"/><path id="2" class="fil2" d="M3204 6861v233h-75v210h-262v-560c0-108 30-192 89-252s142-90 250-90c103 0 180 27 229 81 50 54 74 138 74 251v569h-262v-552c0-34-4-57-12-70s-23-20-44-20c-41 0-62 30-62 90v109h75z"/><path id="3" class="fil2" d="M4040 6810h250c54 67 81 137 81 211 0 86-31 159-94 217-63 59-141 88-233 88-120 0-221-45-305-136-83-91-125-201-125-332s42-240 127-327 191-130 318-130c44 0 92 9 145 26v262c-41-19-79-28-113-28-62 0-112 19-151 57s-59 88-59 149c0 62 18 112 54 148 36 37 85 55 147 55 39 0 59-12 59-35 0-18-13-27-39-27h-63v-199z"/><path id="4" class="fil2" d="M4946 6766v196h-170c-23 0-40 4-49 10-10 7-15 19-15 35 0 19 5 31 15 37s30 9 60 9h176v251h-205c-97 0-171-23-222-69s-77-113-77-200v-345c0-85 24-150 73-197 49-46 117-70 205-70h227v254h-167c-45 0-67 15-67 44 0 17 5 29 16 36s30 10 57 10h144z"/><path id="5" class="fil2" d="M5709 6873l274 7c-18 142-67 252-148 330-80 78-185 116-314 116-131 0-241-44-330-132-88-88-133-197-133-328s45-242 135-331c90-90 201-134 333-134 130 0 238 44 325 131 60 61 103 145 128 253l-281 19c-31-96-91-143-179-143-56 0-102 19-139 58-36 39-55 88-55 148 0 57 18 105 54 142 36 38 81 56 136 56 56 0 100-17 133-50s53-81 59-143z"/><path id="6" class="fil2" d="M6524 6402c125 0 232 45 321 136s134 199 134 326c0 129-45 238-135 328s-199 135-328 135c-128 0-237-45-327-135s-135-199-135-327c0-129 45-238 136-328s202-134 334-134zm-8 260c-54 0-100 20-137 59-38 39-57 87-57 143s19 103 57 143c38 39 84 59 137 59 54 0 100-20 138-59s56-87 56-143-19-104-56-143c-38-39-84-59-138-59z"/><path id="7" class="fil2" d="M7084 7304v-572c0-100 30-180 90-240s140-90 240-90 175 29 228 88c53 58 79 142 79 252v563h-262v-563c0-53-19-79-58-79-37 0-56 26-56 79v563h-262z"/><path d="M4503 3418c-168-476-287-470-253-1453 34-956 27-839 266-1708l1752 2965c420 698 1192 2116 1583 2716-719 8-1631-489-2062-820-525-404-965-972-1287-1699z" mask="url(#id0)" fill="#16c4e3"/><path d="M4503 237c27-41 335 753 335 1629s-294 1597-329 1586c-80-59-329-710-329-1586s297-1588 323-1629z" fill="#369090"/></g></svg>